<svg xmlns="http://www.w3.org/2000/svg" data-name="Layer 1" viewBox="0 0 64 80" x="0px" y="0px"><title>Critical thinking-critical-thinking-think- risky</title><path d="M31,26.75A4.561,4.561,0,0,0,26.667,22a4.382,4.382,0,0,0-4.116,3.279,4.742,4.742,0,0,0-2.884,4.471c0,.04,0,.081,0,.121A4.764,4.764,0,0,0,17,34.25,4.916,4.916,0,0,0,18.813,38.1a5.058,5.058,0,0,0-.48,2.151A4.565,4.565,0,0,0,22.643,45,4.62,4.62,0,0,0,24.5,47.349a2.982,2.982,0,0,0,.763,4.087,2.509,2.509,0,0,0-.262,1.1v.922a2.542,2.542,0,0,0,2,2.479V57a5,5,0,0,0,10,0V55.94a2.542,2.542,0,0,0,2-2.479v-.922a2.509,2.509,0,0,0-.262-1.1,2.982,2.982,0,0,0,.763-4.087A4.62,4.62,0,0,0,41.357,45a4.565,4.565,0,0,0,4.31-4.75,5.072,5.072,0,0,0-.479-2.151A4.918,4.918,0,0,0,47,34.25a4.764,4.764,0,0,0-2.669-4.379c0-.04,0-.081,0-.121a4.742,4.742,0,0,0-2.884-4.471A4.382,4.382,0,0,0,37.333,22,4.561,4.561,0,0,0,33,26.75v16.5A5.025,5.025,0,0,0,33.813,46H30.187A5.025,5.025,0,0,0,31,43.25ZM24.47,44.131a1.523,1.523,0,0,1,1.759.507l1.542-1.276A3.576,3.576,0,0,0,25,42a3.491,3.491,0,0,0-2.4.992,2.579,2.579,0,0,1-2.271-2.742,3.01,3.01,0,0,1,.641-1.868c.014-.017.015-.041.028-.059A2.588,2.588,0,0,1,23,37a2.717,2.717,0,0,1,2.15,1.528l1.7-1.056A4.614,4.614,0,0,0,23,35a4.174,4.174,0,0,0-3.06,1.438A2.92,2.92,0,0,1,19,34.25a2.827,2.827,0,0,1,1.23-2.41A4.063,4.063,0,0,0,23,33a4.614,4.614,0,0,0,3.85-2.472l-1.7-1.056A2.717,2.717,0,0,1,23,31a2.046,2.046,0,0,1-1.268-.514.852.852,0,0,0,0-.113,3.2,3.2,0,0,1-.065-.623A2.8,2.8,0,0,1,22.973,27.3a3.661,3.661,0,0,0,2.106.7h.045a3.476,3.476,0,0,0,2.643-1.287L26.233,25.43a1.455,1.455,0,0,1-1.763.437A2.4,2.4,0,0,1,26.667,24,2.57,2.57,0,0,1,29,26.75v16.5A2.57,2.57,0,0,1,26.667,46,2.393,2.393,0,0,1,24.47,44.131ZM35,57a3,3,0,0,1-6,0V56h6Zm2-3.539a.539.539,0,0,1-.538.539H27.538A.539.539,0,0,1,27,53.461v-.922A.539.539,0,0,1,27.538,52h8.924a.539.539,0,0,1,.538.539ZM35,26.75A2.57,2.57,0,0,1,37.333,24a2.4,2.4,0,0,1,2.2,1.867,1.455,1.455,0,0,1-1.763-.437l-1.534,1.283A3.476,3.476,0,0,0,38.876,28h.045a3.663,3.663,0,0,0,2.106-.7,2.806,2.806,0,0,1,1.306,2.452,3.2,3.2,0,0,1-.065.623.852.852,0,0,0,0,.113A2.046,2.046,0,0,1,41,31a2.717,2.717,0,0,1-2.15-1.528l-1.7,1.056A4.614,4.614,0,0,0,41,33a4.063,4.063,0,0,0,2.77-1.16A2.827,2.827,0,0,1,45,34.25a2.922,2.922,0,0,1-.939,2.188A4.178,4.178,0,0,0,41,35a4.614,4.614,0,0,0-3.85,2.472l1.7,1.056A2.717,2.717,0,0,1,41,37a2.588,2.588,0,0,1,2,1.323c.013.018.014.042.028.059a3.01,3.01,0,0,1,.641,1.868A2.579,2.579,0,0,1,41.4,42.992,3.491,3.491,0,0,0,39,42a3.576,3.576,0,0,0-2.771,1.362l1.542,1.276a1.523,1.523,0,0,1,1.759-.507A2.393,2.393,0,0,1,37.333,46,2.57,2.57,0,0,1,35,43.25ZM37,48a1,1,0,0,1,0,2H27a1,1,0,0,1,0-2Z"/><path d="M49,50H43a1,1,0,0,0-1,1V61a1,1,0,0,0,1,1h6a1,1,0,0,0,1-1V51A1,1,0,0,0,49,50ZM48,60H44V52h4Z"/><path d="M56.848,36.47a1.039,1.039,0,0,0-1.7,0l-5,8A1,1,0,0,0,51,46h1V61a1,1,0,0,0,1,1h6a1,1,0,0,0,1-1V46h1a1,1,0,0,0,.848-1.53ZM58,60H54V46h4Zm1-16H52.805L56,38.887,59.2,44Z"/><path d="M14,51V61a1,1,0,0,0,1,1h6a1,1,0,0,0,1-1V51a1,1,0,0,0-1-1H15A1,1,0,0,0,14,51Zm2,1h4v8H16Z"/><path d="M5,62h6a1,1,0,0,0,1-1V46h1a1,1,0,0,0,.848-1.53l-5-8a1.039,1.039,0,0,0-1.7,0l-5,8A1,1,0,0,0,3,46H4V61A1,1,0,0,0,5,62Zm5-2H6V46h4ZM8,38.887,11.2,44H4.805Z"/><path d="M18,23a1,1,0,0,1-1-1H15a3,3,0,0,0,3,3Z"/><path d="M4.085,16.158a2.985,2.985,0,1,0,2.031.062,2.99,2.99,0,0,1,2.432-2.174A.977.977,0,0,0,9,14.167a.733.733,0,0,1,.519,1.251,1,1,0,0,0,0,1.414l1.649,1.65a1,1,0,0,0,1.414,0A.733.733,0,0,1,13.833,19a1,1,0,0,0,1,1h2.334a1,1,0,0,0,1-1,.733.733,0,0,1,1.251-.518,1.029,1.029,0,0,0,1.414,0l1.649-1.65a1,1,0,0,0,0-1.414A.733.733,0,0,1,23,14.167a1,1,0,0,0,1-1V11.9a5,5,0,0,0,3.915-4.057,2.985,2.985,0,1,0-2.031-.062,2.991,2.991,0,0,1-2.432,2.174A.977.977,0,0,0,23,9.833a.733.733,0,0,1-.519-1.251,1,1,0,0,0,0-1.414l-1.649-1.65a1,1,0,0,0-1.414,0A.733.733,0,0,1,18.167,5a1,1,0,0,0-1-1H14.833a1,1,0,0,0-1,1,.733.733,0,0,1-1.251.518,1.029,1.029,0,0,0-1.414,0L9.519,7.168a1,1,0,0,0,0,1.414A.733.733,0,0,1,9,9.833a.977.977,0,0,0-.452.121A2.99,2.99,0,0,1,6.116,7.78a3.014,3.014,0,1,0-2.031.062A5,5,0,0,0,8,11.9v.2A5,5,0,0,0,4.085,16.158ZM5,20a1,1,0,1,1,1-1A1,1,0,0,1,5,20ZM27,4a1,1,0,1,1-1,1A1,1,0,0,1,27,4ZM10,11.651A2.755,2.755,0,0,0,11.511,8L12,7.51A2.752,2.752,0,0,0,15.65,6h.7A2.752,2.752,0,0,0,20,7.51L20.489,8A2.755,2.755,0,0,0,22,11.651v.7A2.755,2.755,0,0,0,20.489,16L20,16.49A2.752,2.752,0,0,0,16.35,18h-.7A2.752,2.752,0,0,0,12,16.49L11.511,16A2.755,2.755,0,0,0,10,12.349ZM5,6A1,1,0,1,1,6,5,1,1,0,0,1,5,6Z"/><path d="M46,23v2a3,3,0,0,0,3-3H47A1,1,0,0,1,46,23Z"/><path d="M16,15a3,3,0,1,0-3-3A3,3,0,0,0,16,15Zm0-4a1,1,0,1,1-1,1A1,1,0,0,1,16,11Z"/><path d="M59.915,16.158A5,5,0,0,0,56,12.1v-.2a5,5,0,0,0,3.915-4.057,2.985,2.985,0,1,0-2.031-.062,2.991,2.991,0,0,1-2.432,2.174A.977.977,0,0,0,55,9.833a.733.733,0,0,1-.519-1.251,1,1,0,0,0,0-1.414l-1.649-1.65a1,1,0,0,0-1.414,0A.733.733,0,0,1,50.167,5a1,1,0,0,0-1-1H46.833a1,1,0,0,0-1,1,.733.733,0,0,1-1.251.518,1.029,1.029,0,0,0-1.414,0l-1.649,1.65a1,1,0,0,0,0,1.414A.733.733,0,0,1,41,9.833a.977.977,0,0,0-.452.121A2.99,2.99,0,0,1,38.116,7.78a3.014,3.014,0,1,0-2.031.062A5,5,0,0,0,40,11.9v1.268a1,1,0,0,0,1,1,.733.733,0,0,1,.519,1.251,1,1,0,0,0,0,1.414l1.649,1.65a1,1,0,0,0,1.414,0A.733.733,0,0,1,45.833,19a1,1,0,0,0,1,1h2.334a1,1,0,0,0,1-1,.733.733,0,0,1,1.251-.518,1.029,1.029,0,0,0,1.414,0l1.649-1.65a1,1,0,0,0,0-1.414A.733.733,0,0,1,55,14.167a.977.977,0,0,0,.452-.121,2.991,2.991,0,0,1,2.432,2.174,3.014,3.014,0,1,0,2.031-.062ZM59,4a1,1,0,1,1-1,1A1,1,0,0,1,59,4ZM37,6a1,1,0,1,1,1-1A1,1,0,0,1,37,6Zm17,6.349A2.755,2.755,0,0,0,52.489,16L52,16.49A2.752,2.752,0,0,0,48.35,18h-.7A2.752,2.752,0,0,0,44,16.49L43.511,16A2.755,2.755,0,0,0,42,12.349v-.7A2.755,2.755,0,0,0,43.511,8L44,7.51A2.752,2.752,0,0,0,47.65,6h.7A2.752,2.752,0,0,0,52,7.51L52.489,8A2.755,2.755,0,0,0,54,11.651ZM59,20a1,1,0,1,1,1-1A1,1,0,0,1,59,20Z"/><path d="M48,9a3,3,0,1,0,3,3A3,3,0,0,0,48,9Zm0,4a1,1,0,1,1,1-1A1,1,0,0,1,48,13Z"/><text x="0" y="79" fill="#000000" font-size="5px" font-weight="bold" font-family="'Helvetica Neue', Helvetica, Arial-Unicode, Arial, Sans-serif">Created by Sumit Saengthong</text><text x="0" y="84" fill="#000000" font-size="5px" font-weight="bold" font-family="'Helvetica Neue', Helvetica, Arial-Unicode, Arial, Sans-serif">from the Noun Project</text></svg>