<svg xmlns="http://www.w3.org/2000/svg" xmlns:xlink="http://www.w3.org/1999/xlink" version="1.1" x="0px" y="0px" viewBox="0 0 53 66.25" enable-background="new 0 0 53 53" xml:space="preserve"><g><path d="M19.16924,48.88157c0.04688,1.12939,0.78711,2.125,1.80762,2.46484c0.26855,0.1001,0.56934,0.15332,0.87109,0.15332   h9.29004c1.43848,0,2.61523-1.11377,2.67969-2.53027c0.14258-2.85254,0.64941-5.71777,1.50779-8.51807   c1.18557-3.8916,3.05569-7.6543,5.56057-11.18555c2.375-3.37012,3.50098-7.50293,3.16895-11.63818   C43.30157,8.50882,35.43066,1.73532,27.54717,1.53147C17.35088,0.93235,8.88702,9.04709,8.88799,19.09983   c0,9.44366,5.79028,10.56989,8.90039,21.33936C18.58819,43.18869,19.05303,46.02903,19.16924,48.88157z M31.81963,48.87473   c-0.01563,0.35059-0.31543,0.625-0.68164,0.625h-9.29004c-0.0625,0-0.12402-0.00977-0.20313-0.03857   c-0.27246-0.09082-0.46484-0.35742-0.47754-0.66211c-0.03705-0.90796-0.11865-1.81342-0.22217-2.7168h5.9126   c0.41406,0,0.75-0.33594,0.75-0.75s-0.33594-0.75-0.75-0.75h-6.11163c-0.1922-1.23395-0.4552-2.45569-0.76978-3.66553h13.14893   C32.40289,43.53934,31.95318,46.20804,31.81963,48.87473z M39.25323,28.11106c-2.52765,3.56323-4.43475,7.36011-5.68774,11.28906   H27.2503v-9.16357c1.90283,0.46729,2.54675,0.96576,3.89648,0.59229c1.14063-0.29688,2.06836-1.23779,2.36621-2.4043   c0.68304-2.78625-2.02869-5.04755-4.55371-4.02148c-0.55859,0.22314-1.14063,0.40723-1.70898,0.54541v-2.88135   c4.31281-0.15021,5.091,0.36719,5.80664-0.5293c0.8703-1.09027-0.51855-2.8772-0.51855-3.9541   c0-2.16406,3.18182-2.60797,3.72656-0.52246c0.24152,0.87317-0.10638,1.06818-0.63672,3.29785   c-0.20801,0.8681,0.45978,1.70801,1.36035,1.70801h4.83868C41.41369,24.22281,40.55199,26.26773,39.25323,28.11106z    M27.2503,9.3635V3.51999c8.57031,0.36804,15.63623,7.97998,14.79462,17.05286l-4.93231,0.03137   c0.48517-2.00006,0.97681-2.5816,0.60059-3.93359c-0.29883-1.14014-1.23926-2.06836-2.40527-2.36621   c-2.77203-0.67865-5.05115,2.01166-4.02051,4.55518c0.21875,0.54688,0.40137,1.12061,0.54102,1.70752H27.2503v-6.17481   c0-0.87451-0.8457-1.55664-1.6875-1.36572c-1.87146,0.42566-3.16626,1.47211-4.26953,0.06689   c-0.82452-1.05139-0.35455-2.66504,0.95215-3.00635c0.86322-0.23956,1.08856,0.10913,3.29785,0.63721   C26.40166,10.92844,27.2503,10.24143,27.2503,9.3635z M10.88799,19.09983c0-8.35004,6.60339-15.16889,14.8623-15.56098v5.69232   c-1.90875-0.46954-2.55151-0.96655-3.89551-0.59229c-2.30096,0.6004-3.25165,3.45795-1.74121,5.38086   c1.80188,2.29431,4.25726,0.836,5.63672,0.5v6.04736c-4.68695,0.16858-7.16315-1.01239-5.25195,3.76904   c1.00769,2.47803-2.93542,3.72919-3.58594,1.23682c-0.39648-1.43152,1.32196-3.27661,0.37598-4.47217   c-0.26758-0.33936-0.66797-0.53369-1.09961-0.53369H10.9616C10.91692,20.08188,10.88799,19.59336,10.88799,19.09983z    M16.06475,22.03c-0.48523,2.00037-0.97681,2.58264-0.60059,3.93262c0.35376,1.35968,1.63806,2.47168,3.26172,2.47168   c2.40302,0,4.0741-2.41815,3.16406-4.65869c-0.21875-0.54834-0.40137-1.12256-0.54199-1.7085h4.40234   c0.03192,2.81171-0.16211,3.42261,0.40723,3.99561c1.44623,1.46704,3.9577-1.71857,5.55078,0.31201   c0.36914,0.4707,0.49609,1.08789,0.34961,1.68604c-0.16309,0.63818-0.66895,1.15527-1.30078,1.31982   c-0.86871,0.2403-1.08582-0.10803-3.29785-0.63672c-0.8584-0.20264-1.70898,0.48096-1.70898,1.36035v9.2959h-6.19147   c-2.88464-9.48926-7.17578-11.00787-8.38196-17.3399L16.06475,22.03z"/></g><text x="0" y="68" fill="#000000" font-size="5px" font-weight="bold" font-family="'Helvetica Neue', Helvetica, Arial-Unicode, Arial, Sans-serif">Created by Vectors Point</text><text x="0" y="73" fill="#000000" font-size="5px" font-weight="bold" font-family="'Helvetica Neue', Helvetica, Arial-Unicode, Arial, Sans-serif">from the Noun Project</text></svg>