<svg xmlns="http://www.w3.org/2000/svg" xmlns:xlink="http://www.w3.org/1999/xlink" xml:space="preserve" version="1.1" style="shape-rendering:geometricPrecision;text-rendering:geometricPrecision;image-rendering:optimizeQuality;" viewBox="0 0 50000 62500" x="0px" y="0px" fill-rule="evenodd" clip-rule="evenodd"><defs><style type="text/css">
   
    .fil0 {fill:black;fill-rule:nonzero}
   
  </style></defs><g><path class="fil0" d="M7551.72 11853.36l34896.54 0c850.49,0 1545.42,694.94 1545.42,1545.42l0 21948.61 3976.29 0c306.8,0 556.87,250.06 556.87,556.87 0,1233.83 -1008.52,2242.37 -2242.35,2242.37l-42568.99 0c-1233.82,0 -2242.35,-1008.53 -2242.35,-2242.35 0,-306.82 250.05,-556.89 556.87,-556.89l3976.29 0 0 -21948.61c0,-850.49 694.91,-1545.42 1545.41,-1545.42zm12148.93 12691.76c-175.3,79.59 -218.88,151.87 0,275.03l2732.09 1192.82 0 562.22 -3680.28 -1688.18 0 -431.55 3680.28 -1682.1 0 560.7 -2732.09 1211.06zm3987.21 3128.69l-484.72 0 2706.26 -7038.42 481.69 0 -2703.23 7038.42zm3552.64 -4313.92l0 -547.02 3762.33 1682.1 0 433.07 -3762.33 1686.67 0 -551.6 2814.15 -1220.17c289.08,-117.51 299.34,-140.95 0,-276.55l-2814.15 -1206.5zm-10070.31 10796.77c199.95,0 199.95,304.02 0,304.02l-8993.36 0c-362.57,0 -658.71,-296.12 -658.71,-658.69l0 -10589.02c0,-199.96 304.02,-199.96 304.02,0l0 10589.02c0,194.77 159.91,354.67 354.69,354.67l8993.36 0zm3110.27 -20605.87c-199.95,0 -199.95,-304.02 0,-304.02l21542.71 0c362.58,0 658.71,296.14 658.71,658.72l0 19896.5c0,199.95 -304.02,199.95 -304.02,0l0 -19896.5c0,-194.79 -159.9,-354.7 -354.69,-354.7l-21542.71 0zm-18172.56 22303.29c-150.02,0 -134.55,10.94 -124.17,166.3 60.67,906.25 822.35,1619.55 1731.77,1619.55l42568.99 0c954.1,0 1735.65,-781.55 1735.65,-1735.65 0,-27.09 -23.09,-50.2 -50.17,-50.2 -15287.34,0 -30574.71,0 -45862.07,0zm4405.11 -506.69l36973.97 0 0 -21948.61c0,-570.77 -467.95,-1038.72 -1038.72,-1038.72l-34896.54 0c-570.78,0 -1038.71,467.94 -1038.71,1038.72l0 21948.61z"/></g><text x="0" y="50015" fill="#000000" font-size="5px" font-weight="bold" font-family="'Helvetica Neue', Helvetica, Arial-Unicode, Arial, Sans-serif">Created by Oleksandr Panasovskyi</text><text x="0" y="50020" fill="#000000" font-size="5px" font-weight="bold" font-family="'Helvetica Neue', Helvetica, Arial-Unicode, Arial, Sans-serif">from the Noun Project</text></svg>