<svg xmlns="http://www.w3.org/2000/svg" xmlns:xlink="http://www.w3.org/1999/xlink" version="1.1" x="0px" y="0px" viewBox="0 0 58 72.5" style="enable-background:new 0 0 58 58;" xml:space="preserve"><g><path d="M14,27.208c0.736-1.231,1.271-2.582,1.604-3.984C15.092,23.082,14.556,23,14,23s-1.092,0.082-1.604,0.224   C12.729,24.626,13.264,25.977,14,27.208z"/><path d="M8,31h2.303l5.865,3.91C16.5,35.131,17,34.866,17,34.465V31h3v-2c0-2.029-1.015-3.822-2.561-4.909   c-0.526,1.986-1.412,3.873-2.64,5.509L14,30.667L13.2,29.6c-1.227-1.636-2.113-3.523-2.64-5.509C9.015,25.178,8,26.971,8,29V31z"/><path d="M40,32c-1.103,0-2,0.897-2,2s0.897,2,2,2V32z"/><path d="M26,12.029C26.331,12.01,26.664,12,27,12c6.309,0,11.81,3.439,14.744,8.542C42.681,20.198,43.688,20,44.743,20h2.228   c-0.068-0.596-0.357-1.127-0.811-1.417c-1.995-1.275-3.336-3.217-3.878-5.415l-1.339-1.339l-2.11,1.045l-0.484-0.335   c-2.328-1.608-4.93-2.684-7.732-3.197l-0.58-0.106L29.282,7h-3.677C25.854,7.961,26,8.963,26,10V12.029z"/><path d="M44.766,43.628c-2.008-0.679-3.592-2.251-4.318-4.235C37.53,43.164,33.064,45.674,28,45.968V51h1.282l0.754-2.237   l0.58-0.106c2.803-0.513,5.404-1.588,7.732-3.197l0.489-0.338l2.952,1.493C42.582,45.451,43.582,44.436,44.766,43.628z"/><path d="M10.646,33.632L9.697,33H7.435c0.538,2.652,1.571,5.126,3.106,7.349l0.334,0.485L9.83,42.943l3.227,3.227l2.11-1.045   l0.484,0.335c1.937,1.338,4.074,2.284,6.349,2.867v-3.08C16.512,43.559,12.212,39.172,10.646,33.632z"/><path d="M20,17V9.954c-2.228-0.206-4.311-1.099-6-2.575c-1.688,1.476-3.772,2.369-6,2.575V17c0,2.206,1.794,4,4,4h4   C18.206,21,20,19.206,20,17z M17,11c0.552,0,1,0.448,1,1c0,0.552-0.448,1-1,1s-1-0.448-1-1C16,11.448,16.448,11,17,11z M11,11   c0.552,0,1,0.448,1,1c0,0.552-0.448,1-1,1s-1-0.448-1-1C10,11.448,10.448,11,11,11z M10.211,16.658l-0.105-0.21l1.789-0.895   L12,15.764C12.381,16.526,13.147,17,14,17s1.619-0.474,2-1.236l0.105-0.211l1.789,0.895l-0.105,0.211   C17.067,18.103,15.615,19,14,19S10.933,18.103,10.211,16.658z"/><path d="M42.308,50L46,49.999l-0.001-4c0-0.298,0.038-0.586,0.1-0.865C44.312,46.286,42.989,47.991,42.308,50z"/><path d="M51,24c1.103,0,2-0.897,2-2h-4C49,23.103,49.897,24,51,24z"/><path d="M47.236,16.898c1.037,0.662,1.674,1.81,1.749,3.102H50v-7.277c-0.595-0.346-1-0.984-1-1.723c0-1.105,0.895-2,2-2   c1.105,0,2,0.895,2,2c0,0.738-0.405,1.376-1,1.723V20h1.013c0.065-1.28,0.711-2.434,1.768-3.113C56.797,15.591,58,13.39,58,11   c0-1.991-0.853-3.895-2.338-5.222C54.362,4.617,52.733,4,51.008,4c-0.273,0-0.55,0.016-0.828,0.047   c-3.146,0.356-5.721,2.892-6.12,6.029C43.711,12.809,44.929,15.423,47.236,16.898z"/><path d="M9.454,22.425C7.417,21.465,6,19.398,6,17V8h1c2.312,0,4.486-0.9,6.121-2.536L14,4.588l0.878,0.875   C16.514,7.1,18.687,8,21,8h1v9c0,2.398-1.417,4.465-3.454,5.425c1.359,0.943,2.408,2.297,2.977,3.879   C23.032,25.421,24,23.805,24,22V10c0-5.514-4.486-10-10-10S4,4.486,4,10v12c0,1.805,0.968,3.421,2.477,4.304   C7.046,24.722,8.095,23.368,9.454,22.425z"/><path d="M2,22v-5H1c-0.552,0-1,0.449-1,1v12c0,0.551,0.448,1,1,1h5v-2c0-0.228,0.015-0.452,0.034-0.676C3.596,27.184,2,24.746,2,22   z"/><path d="M27,31c0.552,0,1-0.449,1-1V18c0-0.551-0.448-1-1-1h-1v5c0,2.746-1.596,5.184-4.034,6.324C21.985,28.548,22,28.772,22,29v2   H27z"/><path d="M50,43.999C50,43.999,50,43.999,50,43.999c-0.001,0-0.002,0-0.002,0V44H49.98c-1.094,0.011-1.981,0.902-1.981,1.998   l0.001,6L40,52v2v2l6.999-0.001c2.757,0,5-2.243,5-5v-5.001c0-0.534-0.208-1.036-0.586-1.414   C51.035,44.207,50.533,43.999,50,43.999z"/><path d="M54.842,23.052C54.376,24.745,52.84,26,51,26c-2.206,0-4-1.794-4-4h-2.257C41.025,22,38,25.025,38,28.744   c0,0.573,0.093,1.134,0.236,1.685C38.77,30.163,39.364,30,40,30h0.142c0.403-1.822,1.717-3.34,3.542-3.949l0.587-0.195l0.437,0.437   C45.792,27.378,47.294,28,48.828,28H53c1.302,0,2.402,0.839,2.816,2H56c0.636,0,1.229,0.163,1.764,0.428   C57.907,29.878,58,29.316,58,28.744C58,26.414,56.766,24.272,54.842,23.052z"/><path d="M56,32v4c1.103,0,2-0.897,2-2S57.103,32,56,32z"/><path d="M24,43v11h2V42h-1C24.448,42,24,42.449,24,43z"/><path d="M53,30h-4.172c-1.831,0-3.629-0.66-5.029-1.83C42.704,28.75,42,29.893,42,31.163V37c0,2.757,2.243,5,5,5h0.761l0.003-0.001   L49.006,42C51.76,41.996,54,39.755,54,37v-6C54,30.449,53.552,30,53,30z M45,32c0.552,0,1,0.448,1,1c0,0.552-0.448,1-1,1   s-1-0.448-1-1C44,32.448,44.448,32,45,32z M51.789,37.659C51.067,39.103,49.615,40,48,40s-3.067-0.897-3.789-2.342l-0.105-0.211   l1.789-0.895L46,36.764C46.381,37.527,47.147,38,48,38s1.619-0.474,2-1.236l0.105-0.211l1.789,0.895L51.789,37.659z M51,34   c-0.552,0-1-0.448-1-1c0-0.552,0.448-1,1-1s1,0.448,1,1C52,33.553,51.552,34,51,34z"/><path d="M34,54h4v-2h-2C34.898,52,34,52.897,34,54z"/><path d="M24,56c0,1.103,0.897,2,2,2h11c0.268,0,0.519-0.104,0.708-0.293C37.896,57.519,38,57.268,38,57v-1H28H24z"/></g><text x="0" y="73" fill="#000000" font-size="5px" font-weight="bold" font-family="'Helvetica Neue', Helvetica, Arial-Unicode, Arial, Sans-serif">Created by Eucalyp</text><text x="0" y="78" fill="#000000" font-size="5px" font-weight="bold" font-family="'Helvetica Neue', Helvetica, Arial-Unicode, Arial, Sans-serif">from the Noun Project</text></svg>